<mxfile host="app.diagrams.net" agent="Mozilla/5.0 (Windows NT 10.0; Win64; x64) AppleWebKit/537.36 (KHTML, like Gecko) Chrome/135.0.0.0 Safari/537.36" version="26.2.13">
  <diagram name="第 1 页" id="GM0dqS-wm8BU5xjBhxpw">
    <mxGraphModel dx="290" dy="146" grid="1" gridSize="10" guides="1" tooltips="1" connect="1" arrows="1" fold="1" page="1" pageScale="1" pageWidth="827" pageHeight="1169" math="1" shadow="0">
      <root>
        <mxCell id="0" />
        <mxCell id="1" parent="0" />
        <mxCell id="EaCpPoSZm-s5sCB1NcXg-1" value="" style="rounded=1;whiteSpace=wrap;html=1;fillColor=#f5f5f5;fontColor=#333333;strokeColor=#666666;strokeWidth=0.5;arcSize=7;" vertex="1" parent="1">
          <mxGeometry x="80" y="28" width="190" height="102" as="geometry" />
        </mxCell>
        <mxCell id="YEpFyWstEGcYiKYhPvnN-4" value="$$&#xa;\Pr[\mathcal{M}(D) \in \mathcal{S}] \leq e^\epsilon \cdot \Pr[\mathcal{M}(D&#39;) \in \mathcal{S}] + \delta&#xa;$$" style="text;html=1;align=center;verticalAlign=middle;resizable=0;points=[];autosize=1;strokeColor=none;fillColor=none;rotation=0;fontSize=6;" parent="1" vertex="1">
          <mxGeometry x="20" y="200" width="290" height="40" as="geometry" />
        </mxCell>
        <mxCell id="EaCpPoSZm-s5sCB1NcXg-2" value="" style="whiteSpace=wrap;html=1;aspect=fixed;strokeWidth=0.5;fillColor=#cce5ff;strokeColor=#36393d;opacity=80;" vertex="1" parent="1">
          <mxGeometry x="90" y="60" width="20" height="20" as="geometry" />
        </mxCell>
        <mxCell id="EaCpPoSZm-s5sCB1NcXg-5" value="" style="whiteSpace=wrap;html=1;aspect=fixed;strokeWidth=0.5;fillColor=#cce5ff;strokeColor=#36393d;opacity=80;" vertex="1" parent="1">
          <mxGeometry x="91" y="61" width="20" height="20" as="geometry" />
        </mxCell>
        <mxCell id="EaCpPoSZm-s5sCB1NcXg-6" value="" style="whiteSpace=wrap;html=1;aspect=fixed;strokeWidth=0.5;fillColor=#cce5ff;strokeColor=#36393d;opacity=80;" vertex="1" parent="1">
          <mxGeometry x="92" y="62" width="20" height="20" as="geometry" />
        </mxCell>
        <mxCell id="EaCpPoSZm-s5sCB1NcXg-7" value="" style="whiteSpace=wrap;html=1;aspect=fixed;strokeWidth=0.5;fillColor=#cce5ff;strokeColor=#36393d;opacity=80;" vertex="1" parent="1">
          <mxGeometry x="93" y="63" width="20" height="20" as="geometry" />
        </mxCell>
        <mxCell id="EaCpPoSZm-s5sCB1NcXg-8" value="" style="whiteSpace=wrap;html=1;aspect=fixed;strokeWidth=0.5;fillColor=#cce5ff;strokeColor=#36393d;opacity=80;" vertex="1" parent="1">
          <mxGeometry x="94" y="64" width="20" height="20" as="geometry" />
        </mxCell>
        <mxCell id="EaCpPoSZm-s5sCB1NcXg-9" value="" style="whiteSpace=wrap;html=1;aspect=fixed;strokeWidth=0.5;fillColor=#cce5ff;strokeColor=#36393d;opacity=80;" vertex="1" parent="1">
          <mxGeometry x="95" y="65" width="20" height="20" as="geometry" />
        </mxCell>
      </root>
    </mxGraphModel>
  </diagram>
</mxfile>
